PathFileType	4	(X / Y / Z)	Demo_151852_11_September_2019	Demo_151852_11_September_2019.trc
DataRate	CameraRate	NumFrames	NumMarkers	Units	OrigDataRate	OrigDataStartFrame	OrigNumFrames
50	50	23	25	m	50	1085	2071
Frame#	Time		SpineBase		SpineMid		Neck		Head		ShoulderLeft		ElbowLeft		WristLeft		HandLeft		ShoulderRight		ElbowRight		WristRight		HandRight		HipLeft		KneeLeft		AnkleLeft		FootLeft		HipRight		KneeRight		AnkleRight		FootRight		SpineShoulder		HandTipLeft		LeftThumb		HandTipRight		ThumbRight		
X1	Y1	Z1	X2	Y2	Z2	X3	Y3	Z3	X4	Y4	Z4	X5	Y5	Z5	X6	Y6	Z6	X7	Y7	Z7	X8	Y8	Z8	X9	Y9	Z9	X10	Y10	Z10	X11	Y11	Z11	X12	Y12	Z12	X13	Y13	Z13	X14	Y14	Z14	X15	Y15	Z15	X16	Y16	Z16	X17	Y17	Z17	X18	Y18	Z18	X19	Y19	Z19	X20	Y20	Z20	X21	Y21	Z21	X22	Y22	Z22	X23	Y23	Z23	X24	Y24	Z24	X25	Y25	Z25	
1036	36.306	0.111	0.737	1.528	0.098	1.022	1.492	0.088	1.300	1.442	0.108	1.443	1.414	-0.033	1.207	1.405	-0.061	1.042	1.285	0.082	1.247	1.349	0.109	1.313	1.373	0.314	1.237	1.482	0.511	1.379	1.473	0.657	1.479	1.477	0.726	1.516	1.475	0.041	0.744	1.484	-0.033	0.440	1.511	0.108	0.023	1.597	0.139	0.007	1.470	0.176	0.740	1.505	0.181	0.432	1.545	0.156	0.266	1.601	0.142	0.256	1.565	0.091	1.232	1.457	0.170	1.375	1.384	0.122	1.289	1.399	0.794	1.583	1.471	0.738	1.569	1.440
1037	36.323	0.111	0.737	1.528	0.098	1.022	1.492	0.088	1.300	1.442	0.108	1.443	1.414	-0.033	1.207	1.405	-0.061	1.042	1.285	0.082	1.247	1.349	0.109	1.313	1.373	0.314	1.237	1.482	0.511	1.379	1.473	0.657	1.479	1.477	0.726	1.516	1.475	0.041	0.744	1.484	-0.033	0.440	1.511	0.108	0.023	1.597	0.139	0.007	1.470	0.176	0.740	1.505	0.181	0.432	1.545	0.156	0.266	1.601	0.142	0.256	1.565	0.091	1.232	1.457	0.170	1.375	1.384	0.122	1.289	1.399	0.794	1.583	1.471	0.738	1.569	1.440
1038	36.339	0.111	0.737	1.528	0.098	1.022	1.492	0.088	1.300	1.442	0.108	1.443	1.414	-0.033	1.207	1.405	-0.061	1.042	1.285	0.082	1.247	1.349	0.109	1.313	1.373	0.314	1.237	1.482	0.511	1.379	1.473	0.657	1.479	1.477	0.726	1.516	1.475	0.041	0.744	1.484	-0.033	0.440	1.511	0.108	0.023	1.597	0.139	0.007	1.470	0.176	0.740	1.505	0.181	0.432	1.545	0.156	0.266	1.601	0.142	0.256	1.565	0.091	1.232	1.457	0.170	1.375	1.384	0.122	1.289	1.399	0.794	1.583	1.471	0.738	1.569	1.440
1039	36.356	0.111	0.737	1.528	0.098	1.022	1.492	0.088	1.300	1.442	0.108	1.443	1.414	-0.033	1.207	1.405	-0.061	1.042	1.285	0.082	1.247	1.349	0.109	1.313	1.373	0.314	1.237	1.482	0.511	1.379	1.473	0.657	1.479	1.477	0.726	1.516	1.475	0.041	0.744	1.484	-0.033	0.440	1.511	0.108	0.023	1.597	0.139	0.007	1.470	0.176	0.740	1.505	0.181	0.432	1.545	0.156	0.266	1.601	0.142	0.256	1.565	0.091	1.232	1.457	0.170	1.375	1.384	0.122	1.289	1.399	0.794	1.583	1.471	0.738	1.569	1.440
1040	36.373	0.111	0.737	1.528	0.098	1.022	1.492	0.088	1.300	1.442	0.108	1.443	1.414	-0.033	1.207	1.405	-0.061	1.042	1.285	0.082	1.247	1.349	0.109	1.313	1.373	0.314	1.237	1.482	0.511	1.379	1.473	0.657	1.479	1.477	0.726	1.516	1.475	0.041	0.744	1.484	-0.033	0.440	1.511	0.108	0.023	1.597	0.139	0.007	1.470	0.176	0.740	1.505	0.181	0.432	1.545	0.156	0.266	1.601	0.142	0.256	1.565	0.091	1.232	1.457	0.170	1.375	1.384	0.122	1.289	1.399	0.794	1.583	1.471	0.738	1.569	1.440
1041	36.389	0.115	0.738	1.528	0.102	1.024	1.493	0.091	1.300	1.443	0.111	1.443	1.414	-0.030	1.208	1.407	-0.059	1.042	1.287	0.084	1.247	1.351	0.111	1.313	1.376	0.315	1.240	1.483	0.509	1.313	1.481	0.684	1.340	1.506	0.764	1.346	1.512	0.045	0.746	1.485	-0.031	0.442	1.510	0.102	0.029	1.594	0.132	0.014	1.468	0.181	0.742	1.505	0.181	0.433	1.544	0.156	0.267	1.601	0.142	0.256	1.565	0.094	1.232	1.458	0.172	1.375	1.386	0.124	1.288	1.400	0.831	1.378	1.520	0.788	1.379	1.477
1042	36.406	0.115	0.738	1.528	0.102	1.024	1.493	0.091	1.300	1.443	0.111	1.443	1.414	-0.030	1.208	1.407	-0.059	1.042	1.287	0.084	1.247	1.351	0.111	1.313	1.376	0.315	1.240	1.483	0.509	1.313	1.481	0.684	1.340	1.506	0.764	1.346	1.512	0.045	0.746	1.485	-0.031	0.442	1.510	0.102	0.029	1.594	0.132	0.014	1.468	0.181	0.742	1.505	0.181	0.433	1.544	0.156	0.267	1.601	0.142	0.256	1.565	0.094	1.232	1.458	0.172	1.375	1.386	0.124	1.288	1.400	0.831	1.378	1.520	0.788	1.379	1.477
1043	36.423	0.115	0.738	1.528	0.102	1.024	1.493	0.091	1.300	1.443	0.111	1.443	1.414	-0.030	1.208	1.407	-0.059	1.042	1.287	0.084	1.247	1.351	0.111	1.313	1.376	0.315	1.240	1.483	0.509	1.313	1.481	0.684	1.340	1.506	0.764	1.346	1.512	0.045	0.746	1.485	-0.031	0.442	1.510	0.102	0.029	1.594	0.132	0.014	1.468	0.181	0.742	1.505	0.181	0.433	1.544	0.156	0.267	1.601	0.142	0.256	1.565	0.094	1.232	1.458	0.172	1.375	1.386	0.124	1.288	1.400	0.831	1.378	1.520	0.788	1.379	1.477
1044	36.439	0.119	0.739	1.529	0.105	1.024	1.494	0.093	1.300	1.444	0.113	1.443	1.415	-0.028	1.208	1.409	-0.057	1.042	1.290	0.086	1.247	1.354	0.113	1.312	1.379	0.316	1.241	1.483	0.508	1.251	1.490	0.696	1.259	1.517	0.772	1.261	1.529	0.049	0.747	1.485	-0.030	0.443	1.510	0.098	0.033	1.592	0.128	0.018	1.468	0.184	0.743	1.506	0.180	0.433	1.543	0.156	0.267	1.601	0.143	0.257	1.565	0.096	1.233	1.459	0.173	1.375	1.389	0.125	1.287	1.402	0.843	1.248	1.538	0.806	1.256	1.493
1045	36.456	0.119	0.739	1.529	0.105	1.024	1.494	0.093	1.300	1.444	0.113	1.443	1.415	-0.028	1.208	1.409	-0.057	1.042	1.290	0.086	1.247	1.354	0.113	1.312	1.379	0.316	1.241	1.483	0.508	1.251	1.490	0.696	1.259	1.517	0.772	1.261	1.529	0.049	0.747	1.485	-0.030	0.443	1.510	0.098	0.033	1.592	0.128	0.018	1.468	0.184	0.743	1.506	0.180	0.433	1.543	0.156	0.267	1.601	0.143	0.257	1.565	0.096	1.233	1.459	0.173	1.375	1.389	0.125	1.287	1.402	0.843	1.248	1.538	0.806	1.256	1.493
1046	36.473	0.123	0.739	1.530	0.108	1.025	1.495	0.095	1.300	1.445	0.114	1.443	1.416	-0.027	1.208	1.410	-0.055	1.042	1.291	0.088	1.247	1.356	0.115	1.312	1.381	0.314	1.237	1.484	0.502	1.173	1.498	0.720	1.130	1.541	0.785	1.111	1.555	0.052	0.747	1.486	-0.028	0.443	1.510	0.094	0.036	1.591	0.125	0.021	1.468	0.188	0.743	1.507	0.180	0.433	1.542	0.156	0.267	1.601	0.144	0.257	1.565	0.098	1.233	1.460	0.174	1.375	1.391	0.130	1.288	1.404	0.855	1.074	1.569	0.823	1.090	1.519
1047	36.490	0.123	0.739	1.530	0.108	1.025	1.495	0.095	1.300	1.445	0.114	1.443	1.416	-0.027	1.208	1.410	-0.055	1.042	1.291	0.088	1.247	1.356	0.115	1.312	1.381	0.314	1.237	1.484	0.502	1.173	1.498	0.720	1.130	1.541	0.785	1.111	1.555	0.052	0.747	1.486	-0.028	0.443	1.510	0.094	0.036	1.591	0.125	0.021	1.468	0.188	0.743	1.507	0.180	0.433	1.542	0.156	0.267	1.601	0.144	0.257	1.565	0.098	1.233	1.460	0.174	1.375	1.391	0.130	1.288	1.404	0.855	1.074	1.569	0.823	1.090	1.519
1048	36.506	0.123	0.739	1.530	0.108	1.025	1.495	0.095	1.300	1.445	0.114	1.443	1.416	-0.027	1.208	1.410	-0.055	1.042	1.291	0.088	1.247	1.356	0.115	1.312	1.381	0.314	1.237	1.484	0.502	1.173	1.498	0.720	1.130	1.541	0.785	1.111	1.555	0.052	0.747	1.486	-0.028	0.443	1.510	0.094	0.036	1.591	0.125	0.021	1.468	0.188	0.743	1.507	0.180	0.433	1.542	0.156	0.267	1.601	0.144	0.257	1.565	0.098	1.233	1.460	0.174	1.375	1.391	0.130	1.288	1.404	0.855	1.074	1.569	0.823	1.090	1.519
1049	36.523	0.123	0.739	1.530	0.108	1.025	1.495	0.095	1.300	1.445	0.114	1.443	1.416	-0.027	1.208	1.410	-0.055	1.042	1.291	0.088	1.247	1.356	0.115	1.312	1.381	0.314	1.237	1.484	0.502	1.173	1.498	0.720	1.130	1.541	0.785	1.111	1.555	0.052	0.747	1.486	-0.028	0.443	1.510	0.094	0.036	1.591	0.125	0.021	1.468	0.188	0.743	1.507	0.180	0.433	1.542	0.156	0.267	1.601	0.144	0.257	1.565	0.098	1.233	1.460	0.174	1.375	1.391	0.130	1.288	1.404	0.855	1.074	1.569	0.823	1.090	1.519
1050	36.540	0.123	0.739	1.530	0.108	1.025	1.495	0.095	1.300	1.445	0.114	1.443	1.416	-0.027	1.208	1.410	-0.055	1.042	1.291	0.088	1.247	1.356	0.115	1.312	1.381	0.314	1.237	1.484	0.502	1.173	1.498	0.720	1.130	1.541	0.785	1.111	1.555	0.052	0.747	1.486	-0.028	0.443	1.510	0.094	0.036	1.591	0.125	0.021	1.468	0.188	0.743	1.507	0.180	0.433	1.542	0.156	0.267	1.601	0.144	0.257	1.565	0.098	1.233	1.460	0.174	1.375	1.391	0.130	1.288	1.404	0.855	1.074	1.569	0.823	1.090	1.519
1051	36.556	0.123	0.739	1.530	0.108	1.025	1.495	0.095	1.300	1.445	0.114	1.443	1.416	-0.027	1.208	1.410	-0.055	1.042	1.291	0.088	1.247	1.356	0.115	1.312	1.381	0.314	1.237	1.484	0.502	1.173	1.498	0.720	1.130	1.541	0.785	1.111	1.555	0.052	0.747	1.486	-0.028	0.443	1.510	0.094	0.036	1.591	0.125	0.021	1.468	0.188	0.743	1.507	0.180	0.433	1.542	0.156	0.267	1.601	0.144	0.257	1.565	0.098	1.233	1.460	0.174	1.375	1.391	0.130	1.288	1.404	0.855	1.074	1.569	0.823	1.090	1.519
1052	36.573	0.126	0.737	1.532	0.110	1.024	1.496	0.096	1.301	1.446	0.116	1.443	1.416	-0.026	1.208	1.411	-0.054	1.042	1.292	0.090	1.247	1.357	0.117	1.311	1.383	0.299	1.210	1.480	0.419	1.018	1.498	0.611	0.891	1.558	0.647	0.832	1.574	0.055	0.745	1.488	-0.027	0.442	1.510	0.093	0.038	1.591	0.125	0.023	1.470	0.192	0.741	1.509	0.178	0.432	1.542	0.156	0.268	1.600	0.145	0.257	1.566	0.100	1.233	1.460	0.175	1.376	1.393	0.132	1.288	1.405	0.732	0.776	1.610	0.683	0.797	1.549
1053	36.590	0.126	0.737	1.532	0.110	1.024	1.496	0.096	1.301	1.446	0.116	1.443	1.416	-0.026	1.208	1.411	-0.054	1.042	1.292	0.090	1.247	1.357	0.117	1.311	1.383	0.299	1.210	1.480	0.419	1.018	1.498	0.611	0.891	1.558	0.647	0.832	1.574	0.055	0.745	1.488	-0.027	0.442	1.510	0.093	0.038	1.591	0.125	0.023	1.470	0.192	0.741	1.509	0.178	0.432	1.542	0.156	0.268	1.600	0.145	0.257	1.566	0.100	1.233	1.460	0.175	1.376	1.393	0.132	1.288	1.405	0.732	0.776	1.610	0.683	0.797	1.549
1054	36.606	0.129	0.734	1.534	0.112	1.024	1.497	0.098	1.301	1.446	0.117	1.443	1.417	-0.024	1.208	1.413	-0.052	1.042	1.293	0.091	1.247	1.359	0.118	1.311	1.384	0.291	1.197	1.478	0.367	0.927	1.496	0.522	0.794	1.551	0.543	0.740	1.564	0.057	0.742	1.491	-0.025	0.440	1.511	0.092	0.039	1.591	0.126	0.026	1.472	0.195	0.737	1.510	0.176	0.429	1.543	0.156	0.268	1.600	0.145	0.257	1.566	0.101	1.233	1.461	0.175	1.376	1.394	0.135	1.288	1.406	0.581	0.627	1.606	0.552	0.657	1.547
1055	36.623	0.129	0.734	1.534	0.112	1.024	1.497	0.098	1.301	1.446	0.117	1.443	1.417	-0.024	1.208	1.413	-0.052	1.042	1.293	0.091	1.247	1.359	0.118	1.311	1.384	0.291	1.197	1.478	0.367	0.927	1.496	0.522	0.794	1.551	0.543	0.740	1.564	0.057	0.742	1.491	-0.025	0.440	1.511	0.092	0.039	1.591	0.126	0.026	1.472	0.195	0.737	1.510	0.176	0.429	1.543	0.156	0.268	1.600	0.145	0.257	1.566	0.101	1.233	1.461	0.175	1.376	1.394	0.135	1.288	1.406	0.581	0.627	1.606	0.552	0.657	1.547
1056	36.640	0.131	0.731	1.535	0.114	1.023	1.498	0.099	1.301	1.447	0.117	1.443	1.418	-0.023	1.207	1.414	-0.051	1.042	1.293	0.092	1.247	1.360	0.120	1.311	1.386	0.286	1.189	1.477	0.342	0.897	1.491	0.478	0.763	1.541	0.463	0.666	1.546	0.059	0.739	1.493	-0.024	0.438	1.512	0.091	0.040	1.594	0.127	0.027	1.476	0.197	0.733	1.511	0.175	0.426	1.544	0.156	0.269	1.601	0.146	0.258	1.566	0.103	1.233	1.462	0.176	1.376	1.396	0.136	1.287	1.407	0.459	0.619	1.563	0.456	0.652	1.512
1057	36.657	0.131	0.731	1.535	0.114	1.023	1.498	0.099	1.301	1.447	0.117	1.443	1.418	-0.023	1.207	1.414	-0.051	1.042	1.293	0.092	1.247	1.360	0.120	1.311	1.386	0.286	1.189	1.477	0.342	0.897	1.491	0.478	0.763	1.541	0.463	0.666	1.546	0.059	0.739	1.493	-0.024	0.438	1.512	0.091	0.040	1.594	0.127	0.027	1.476	0.197	0.733	1.511	0.175	0.426	1.544	0.156	0.269	1.601	0.146	0.258	1.566	0.103	1.233	1.462	0.176	1.376	1.396	0.136	1.287	1.407	0.459	0.619	1.563	0.456	0.652	1.512
1058	36.673	0.132	0.728	1.536	0.116	1.022	1.499	0.101	1.301	1.448	0.118	1.443	1.418	-0.022	1.207	1.415	-0.050	1.042	1.294	0.094	1.246	1.361	0.121	1.311	1.387	0.282	1.185	1.475	0.338	0.897	1.489	0.459	0.753	1.528	0.409	0.644	1.522	0.060	0.736	1.495	-0.023	0.436	1.514	0.091	0.041	1.595	0.128	0.028	1.479	0.199	0.730	1.512	0.174	0.424	1.545	0.156	0.269	1.601	0.147	0.258	1.566	0.104	1.233	1.463	0.177	1.376	1.397	0.138	1.287	1.408	0.396	0.596	1.525	0.393	0.597	1.480
